<svg width="40" height="41" viewBox="0 0 40 41" fill="none" xmlns="http://www.w3.org/2000/svg">
<path d="M26.875 10.8164C26.875 10.6445 26.7344 10.5039 26.5625 10.5039H11.5625C11.3906 10.5039 11.25 10.6445 11.25 10.8164V12.6914C11.25 12.8633 11.3906 13.0039 11.5625 13.0039H26.5625C26.7344 13.0039 26.875 12.8633 26.875 12.6914V10.8164ZM26.5625 16.1289H11.5625C11.3906 16.1289 11.25 16.2695 11.25 16.4414V18.3164C11.25 18.4883 11.3906 18.6289 11.5625 18.6289H26.5625C26.7344 18.6289 26.875 18.4883 26.875 18.3164V16.4414C26.875 16.2695 26.7344 16.1289 26.5625 16.1289ZM18.75 21.7539H11.5625C11.3906 21.7539 11.25 21.8945 11.25 22.0664V23.9414C11.25 24.1133 11.3906 24.2539 11.5625 24.2539H18.75C18.9219 24.2539 19.0625 24.1133 19.0625 23.9414V22.0664C19.0625 21.8945 18.9219 21.7539 18.75 21.7539ZM16.875 33.7852H8.125V6.28516H30V19.7227C30 19.8945 30.1406 20.0352 30.3125 20.0352H32.5C32.6719 20.0352 32.8125 19.8945 32.8125 19.7227V4.72266C32.8125 4.03125 32.2539 3.47266 31.5625 3.47266H6.5625C5.87109 3.47266 5.3125 4.03125 5.3125 4.72266V35.3477C5.3125 36.0391 5.87109 36.5977 6.5625 36.5977H16.875C17.0469 36.5977 17.1875 36.457 17.1875 36.2852V34.0977C17.1875 33.9258 17.0469 33.7852 16.875 33.7852ZM30.8125 30.8789C31.9453 29.8516 32.6563 28.3672 32.6563 26.7148C32.6563 23.6094 30.1367 21.0898 27.0313 21.0898C23.9258 21.0898 21.4063 23.6094 21.4063 26.7148C21.4063 28.3672 22.1172 29.8516 23.25 30.8789C21.0234 32.1484 19.4922 34.5 19.375 37.2109C19.3672 37.3867 19.5117 37.5352 19.6875 37.5352H21.5664C21.7305 37.5352 21.8672 37.4063 21.8789 37.2383C22.0313 34.5352 24.2852 32.3789 27.0313 32.3789C29.7773 32.3789 32.0313 34.5352 32.1836 37.2383C32.1914 37.4023 32.3281 37.5352 32.4961 37.5352H34.375C34.5547 37.5352 34.6953 37.3867 34.6875 37.2109C34.5742 34.4961 33.0391 32.1484 30.8125 30.8789ZM27.0313 23.5898C28.7578 23.5898 30.1563 24.9883 30.1563 26.7148C30.1563 28.4414 28.7578 29.8398 27.0313 29.8398C25.3047 29.8398 23.9063 28.4414 23.9063 26.7148C23.9063 24.9883 25.3047 23.5898 27.0313 23.5898Z" fill="#8C30F5"/>
</svg>
