<svg width="40" height="41" viewBox="0 0 40 41" fill="none" xmlns="http://www.w3.org/2000/svg">
<path d="M37.3499 19.9L29.8499 6.15C29.742 5.95274 29.5828 5.78824 29.3892 5.67384C29.1956 5.55945 28.9748 5.49939 28.7499 5.5H11.2499C11.025 5.49939 10.8042 5.55945 10.6106 5.67384C10.417 5.78824 10.2578 5.95274 10.1499 6.15L2.64989 19.9C2.54018 20.09 2.48242 20.3056 2.48242 20.525C2.48242 20.7444 2.54018 20.96 2.64989 21.15L10.1499 34.9C10.2642 35.088 10.4261 35.2424 10.6193 35.3478C10.8124 35.4531 11.03 35.5056 11.2499 35.5H28.7499C28.9748 35.5006 29.1956 35.4406 29.3892 35.3262C29.5828 35.2118 29.742 35.0473 29.8499 34.85L37.3499 21.1C37.4505 20.916 37.5033 20.7097 37.5033 20.5C37.5033 20.2903 37.4505 20.084 37.3499 19.9ZM28.6624 9.25L34.1499 19.25H22.2749L28.6624 9.25ZM19.9999 18.175L13.5249 8H26.4749L19.9999 18.175ZM11.3374 9.25L17.7249 19.25H5.84989L11.3374 9.25ZM5.84989 21.75H17.7249L11.3374 31.75L5.84989 21.75ZM19.9999 22.825L26.4749 33H13.5249L19.9999 22.825ZM28.6624 31.75L22.2749 21.75H34.1499L28.6624 31.75Z" fill="#8C30F5"/>
</svg>
