<svg width="40" height="41" viewBox="0 0 40 41" fill="none" xmlns="http://www.w3.org/2000/svg">
<path d="M11.6667 18.8333C11.6667 15.6906 11.6667 14.1193 12.6431 13.143C13.6194 12.1667 15.1907 12.1667 18.3334 12.1667H21.6667C24.8094 12.1667 26.3808 12.1667 27.3571 13.143C28.3334 14.1193 28.3334 15.6906 28.3334 18.8333V22.1667C28.3334 25.3094 28.3334 26.8807 27.3571 27.857C26.3808 28.8333 24.8094 28.8333 21.6667 28.8333H18.3334C15.1907 28.8333 13.6194 28.8333 12.6431 27.857C11.6667 26.8807 11.6667 25.3094 11.6667 22.1667V18.8333Z" stroke="white"/>
<rect x="16.6667" y="17.1667" width="6.66667" height="6.66667" rx="1" fill="white" stroke="white"/>
<path d="M16.6667 12.1667V7.16666" stroke="white" stroke-linecap="round"/>
<path d="M23.3335 12.1667V7.16666" stroke="white" stroke-linecap="round"/>
<path d="M28.3333 17.1667L33.3333 17.1667" stroke="white" stroke-linecap="round"/>
<path d="M28.3333 23.8333L33.3333 23.8333" stroke="white" stroke-linecap="round"/>
<path d="M16.6667 33.8333V28.8333" stroke="white" stroke-linecap="round"/>
<path d="M23.3335 33.8333V28.8333" stroke="white" stroke-linecap="round"/>
<path d="M6.66675 17.1667L11.6667 17.1667" stroke="white" stroke-linecap="round"/>
<path d="M6.66675 23.8333L11.6667 23.8333" stroke="white" stroke-linecap="round"/>
</svg>
