<svg width="40" height="40" viewBox="0 0 40 40" fill="none" xmlns="http://www.w3.org/2000/svg">
<path d="M11.6667 18.3333C11.6667 15.1906 11.6667 13.6193 12.6431 12.643C13.6194 11.6667 15.1907 11.6667 18.3334 11.6667H21.6667C24.8094 11.6667 26.3808 11.6667 27.3571 12.643C28.3334 13.6193 28.3334 15.1906 28.3334 18.3333V21.6667C28.3334 24.8094 28.3334 26.3807 27.3571 27.357C26.3808 28.3333 24.8094 28.3333 21.6667 28.3333H18.3334C15.1907 28.3333 13.6194 28.3333 12.6431 27.357C11.6667 26.3807 11.6667 24.8094 11.6667 21.6667V18.3333Z" stroke="white"/>
<rect x="16.6667" y="16.6667" width="6.66667" height="6.66667" rx="1" fill="white" stroke="white"/>
<path d="M16.6667 11.6667V6.66666" stroke="white" stroke-linecap="round"/>
<path d="M23.3335 11.6667V6.66666" stroke="white" stroke-linecap="round"/>
<path d="M28.3333 16.6667L33.3333 16.6667" stroke="white" stroke-linecap="round"/>
<path d="M28.3333 23.3333L33.3333 23.3333" stroke="white" stroke-linecap="round"/>
<path d="M16.6667 33.3333V28.3333" stroke="white" stroke-linecap="round"/>
<path d="M23.3335 33.3333V28.3333" stroke="white" stroke-linecap="round"/>
<path d="M6.66675 16.6667L11.6667 16.6667" stroke="white" stroke-linecap="round"/>
<path d="M6.66675 23.3333L11.6667 23.3333" stroke="white" stroke-linecap="round"/>
</svg>
