<svg width="40" height="40" viewBox="0 0 40 40" fill="none" xmlns="http://www.w3.org/2000/svg">
<path d="M5.5 13.3333C5.5 11.7478 5.50106 10.609 5.61758 9.74237C5.73216 8.89011 5.95009 8.37629 6.32986 7.99652C6.70964 7.61675 7.22345 7.39882 8.07572 7.28424C8.94237 7.16772 10.0812 7.16666 11.6667 7.16666H28.3333C29.9188 7.16666 31.0576 7.16772 31.9243 7.28424C32.7766 7.39882 33.2904 7.61675 33.6701 7.99652C34.0499 8.37629 34.2678 8.89011 34.3824 9.74237C34.4989 10.609 34.5 11.7478 34.5 13.3333V27.8333H5.5V13.3333Z" stroke="white"/>
<path d="M6.11111 27.8333C5.22132 27.8333 4.5 28.5547 4.5 29.4445C4.5 30.9479 5.71878 32.1667 7.22222 32.1667H32.7778C34.2812 32.1667 35.5 30.9479 35.5 29.4445C35.5 28.5547 34.7787 27.8333 33.8889 27.8333H6.11111Z" stroke="white"/>
</svg>
