<svg width="132" height="132" viewBox="0 0 132 132" fill="none" xmlns="http://www.w3.org/2000/svg">
<g filter="url(#filter0_d_206_211)">
<rect x="16" y="9" width="100" height="100" rx="16" fill="#2B2B2B"/>
<g clip-path="url(#clip0_206_211)">
<path fill-rule="evenodd" clip-rule="evenodd" d="M63.0835 29.8333C59.2158 29.8333 55.5064 31.3697 52.7715 34.1046C50.0366 36.8395 48.5002 40.5488 48.5002 44.4166C48.5002 48.2843 50.0366 51.9937 52.7715 54.7286C55.5064 57.4635 59.2158 58.9999 63.0835 58.9999C66.9512 58.9999 70.6606 57.4635 73.3955 54.7286C76.1304 51.9937 77.6668 48.2843 77.6668 44.4166C77.6668 40.5488 76.1304 36.8395 73.3955 34.1046C70.6606 31.3697 66.9512 29.8333 63.0835 29.8333ZM63.0835 61.9166C56.0981 61.9166 49.7397 63.9408 45.0643 66.7933C42.731 68.2166 40.736 69.8966 39.2952 71.7224C37.8777 73.5132 36.8335 75.6628 36.8335 77.9582C36.8335 80.4228 38.0322 82.3653 39.7589 83.7507C41.3922 85.0632 43.5477 85.9324 45.8372 86.5391C50.4397 87.7553 56.5822 88.1666 63.0835 88.1666C63.7563 88.1666 64.4222 88.1617 65.0814 88.152C65.5699 88.1453 66.0489 88.016 66.4744 87.776C66.8998 87.536 67.2582 87.1929 67.5166 86.7783C67.775 86.3637 67.9251 85.8909 67.9532 85.4032C67.9813 84.9154 67.8864 84.4285 67.6772 83.987C66.5713 81.6461 65.9985 79.0889 66.0002 76.4999C66.0002 72.8483 67.1172 69.4649 69.0247 66.662C69.3083 66.2455 69.4791 65.7626 69.5205 65.2604C69.5619 64.7583 69.4725 64.2539 69.261 63.7966C69.0495 63.3392 68.7231 62.9445 68.3137 62.6508C67.9043 62.3571 67.4257 62.1745 66.9247 62.1208C65.6686 61.9846 64.3882 61.9166 63.0835 61.9166ZM86.0202 64.8245C85.7634 64.3839 85.3956 64.0183 84.9534 63.7642C84.5112 63.5101 84.0102 63.3764 83.5002 63.3764C82.9902 63.3764 82.4891 63.5101 82.0469 63.7642C81.6048 64.0183 81.2369 64.3839 80.9802 64.8245L78.326 69.3803L73.1752 70.4945C72.6764 70.6024 72.2147 70.8392 71.8362 71.1813C71.4576 71.5234 71.1754 71.9589 71.0178 72.4442C70.8602 72.9295 70.8326 73.4477 70.9379 73.9469C71.0431 74.4462 71.2775 74.9091 71.6177 75.2895L75.1293 79.2212L74.5985 84.4653C74.5471 84.9728 74.6296 85.4849 74.8379 85.9505C75.0462 86.4161 75.373 86.819 75.7856 87.1189C76.1982 87.4187 76.6823 87.6051 77.1894 87.6595C77.6966 87.7139 78.2092 87.6343 78.676 87.4287L83.5002 85.2995L88.3243 87.4287C88.7911 87.6343 89.3037 87.7139 89.8109 87.6595C90.3181 87.6051 90.8021 87.4187 91.2147 87.1189C91.6274 86.819 91.9541 86.4161 92.1624 85.9505C92.3707 85.4849 92.4533 84.9728 92.4018 84.4653L91.871 79.2182L95.3827 75.2895C95.7228 74.9091 95.9572 74.4462 96.0625 73.9469C96.1677 73.4477 96.1402 72.9295 95.9825 72.4442C95.8249 71.9589 95.5427 71.5234 95.1642 71.1813C94.7856 70.8392 94.3239 70.6024 93.8252 70.4945L88.6743 69.3803L86.0202 64.8245Z" fill="#8C30F5"/>
</g>
</g>
<defs>
<filter id="filter0_d_206_211" x="0" y="0" width="132" height="132" filterUnits="userSpaceOnUse" color-interpolation-filters="sRGB">
<feFlood flood-opacity="0" result="BackgroundImageFix"/>
<feColorMatrix in="SourceAlpha" type="matrix" values="0 0 0 0 0 0 0 0 0 0 0 0 0 0 0 0 0 0 127 0" result="hardAlpha"/>
<feOffset dy="7"/>
<feGaussianBlur stdDeviation="8"/>
<feComposite in2="hardAlpha" operator="out"/>
<feColorMatrix type="matrix" values="0 0 0 0 0 0 0 0 0 0 0 0 0 0 0 0 0 0 0.25 0"/>
<feBlend mode="normal" in2="BackgroundImageFix" result="effect1_dropShadow_206_211"/>
<feBlend mode="normal" in="SourceGraphic" in2="effect1_dropShadow_206_211" result="shape"/>
</filter>
<clipPath id="clip0_206_211">
<rect width="70" height="70" fill="white" transform="translate(31 24)"/>
</clipPath>
</defs>
</svg>
