<svg width="40" height="41" viewBox="0 0 40 41" fill="none" xmlns="http://www.w3.org/2000/svg">
<path d="M10 13.8333C11.3261 13.8333 12.5979 13.3065 13.5355 12.3688C14.4732 11.4311 15 10.1593 15 8.83325C15 7.50717 14.4732 6.2354 13.5355 5.29772C12.5979 4.36004 11.3261 3.83325 10 3.83325C8.67392 3.83325 7.40215 4.36004 6.46447 5.29772C5.52678 6.2354 5 7.50717 5 8.83325C5 10.1593 5.52678 11.4311 6.46447 12.3688C7.40215 13.3065 8.67392 13.8333 10 13.8333ZM10 13.8333V27.1666M10 27.1666C8.67392 27.1666 7.40215 27.6934 6.46447 28.6311C5.52678 29.5687 5 30.8405 5 32.1666C5 33.4927 5.52678 34.7644 6.46447 35.7021C7.40215 36.6398 8.67392 37.1666 10 37.1666C11.3261 37.1666 12.5979 36.6398 13.5355 35.7021C14.4732 34.7644 15 33.4927 15 32.1666C15 30.8405 14.4732 29.5687 13.5355 28.6311C12.5979 27.6934 11.3261 27.1666 10 27.1666ZM35 8.83325C35 10.1593 34.4732 11.4311 33.5355 12.3688C32.5979 13.3065 31.3261 13.8333 30 13.8333C28.6739 13.8333 27.4021 13.3065 26.4645 12.3688C25.5268 11.4311 25 10.1593 25 8.83325C25 7.50717 25.5268 6.2354 26.4645 5.29772C27.4021 4.36004 28.6739 3.83325 30 3.83325C31.3261 3.83325 32.5979 4.36004 33.5355 5.29772C34.4732 6.2354 35 7.50717 35 8.83325Z" stroke="#8C30F5" stroke-width="1.5" stroke-linecap="round" stroke-linejoin="round"/>
<path d="M10 20.4999H23.3333C25.6667 20.4999 26.8333 20.4999 27.725 20.0449C28.5085 19.6455 29.1456 19.0085 29.545 18.2249C30 17.3333 30 16.1666 30 13.8333" stroke="#8C30F5" stroke-width="1.5" stroke-linecap="round" stroke-linejoin="round"/>
</svg>
