<svg width="132" height="132" viewBox="0 0 132 132" fill="none" xmlns="http://www.w3.org/2000/svg">
<g filter="url(#filter0_d_206_257)">
<rect x="16" y="9.00122" width="100" height="100" rx="16" fill="#2B2B2B"/>
<path d="M96.3623 57.9512L83.2373 33.8887C83.0484 33.5435 82.7699 33.2556 82.4311 33.0554C82.0923 32.8553 81.7058 32.7502 81.3123 32.7512H50.6873C50.2938 32.7502 49.9073 32.8553 49.5685 33.0554C49.2297 33.2556 48.9512 33.5435 48.7623 33.8887L35.6373 57.9512C35.4453 58.2838 35.3442 58.661 35.3442 59.045C35.3442 59.429 35.4453 59.8062 35.6373 60.1387L48.7623 84.2012C48.9624 84.5302 49.2457 84.8005 49.5837 84.9848C49.9217 85.1692 50.3024 85.2611 50.6873 85.2512H81.3123C81.7058 85.2523 82.0923 85.1472 82.4311 84.947C82.7699 84.7468 83.0484 84.4589 83.2373 84.1137L96.3623 60.0512C96.5385 59.7293 96.6308 59.3682 96.6308 59.0012C96.6308 58.6343 96.5385 58.2732 96.3623 57.9512ZM81.1592 39.3137L90.7623 56.8137H69.9811L81.1592 39.3137ZM65.9998 54.9325L54.6686 37.1262H77.3311L65.9998 54.9325ZM50.8404 39.3137L62.0186 56.8137H41.2373L50.8404 39.3137ZM41.2373 61.1887H62.0186L50.8404 78.6887L41.2373 61.1887ZM65.9998 63.07L77.3311 80.8762H54.6686L65.9998 63.07ZM81.1592 78.6887L69.9811 61.1887H90.7623L81.1592 78.6887Z" fill="#8C30F5"/>
</g>
<defs>
<filter id="filter0_d_206_257" x="0" y="0.0012207" width="132" height="132" filterUnits="userSpaceOnUse" color-interpolation-filters="sRGB">
<feFlood flood-opacity="0" result="BackgroundImageFix"/>
<feColorMatrix in="SourceAlpha" type="matrix" values="0 0 0 0 0 0 0 0 0 0 0 0 0 0 0 0 0 0 127 0" result="hardAlpha"/>
<feOffset dy="7"/>
<feGaussianBlur stdDeviation="8"/>
<feComposite in2="hardAlpha" operator="out"/>
<feColorMatrix type="matrix" values="0 0 0 0 0 0 0 0 0 0 0 0 0 0 0 0 0 0 0.25 0"/>
<feBlend mode="normal" in2="BackgroundImageFix" result="effect1_dropShadow_206_257"/>
<feBlend mode="normal" in="SourceGraphic" in2="effect1_dropShadow_206_257" result="shape"/>
</filter>
</defs>
</svg>
