<svg width="67" height="67" viewBox="0 0 67 67" fill="none" xmlns="http://www.w3.org/2000/svg">
<path d="M33.7676 0.380295C15.5986 0.380295 0.809845 15.169 0.809845 33.338C0.809845 51.5071 15.5986 66.2958 33.7676 66.2958C51.9366 66.2958 66.7253 51.5071 66.7253 33.338C66.7253 15.169 51.9366 0.380295 33.7676 0.380295ZM33.7676 64.0775C16.7606 64.0775 2.92252 50.2395 2.92252 33.2324C2.92252 16.2254 16.7606 2.38734 33.7676 2.38734C50.7746 2.38734 64.6127 16.2254 64.6127 33.2324C64.6127 50.2395 50.7746 64.0775 33.7676 64.0775Z" fill="#8C30F5"/>
<path d="M9.78872 33.338C9.78872 20.1338 20.5634 9.35917 33.7676 9.35917C37.0423 9.35917 40.1056 9.99297 43.0634 11.2606C43.5915 11.4718 44.2253 11.2606 44.4366 10.7324C44.6479 10.2042 44.4366 9.57044 43.9084 9.35917C40.7394 7.98593 37.2535 7.35213 33.7676 7.35213C19.4014 7.35213 7.67605 19.0775 7.67605 33.4437C7.67605 39.7817 9.89436 45.8028 14.1197 50.5564C14.331 50.7676 14.6479 50.8733 14.9648 50.8733C15.176 50.8733 15.493 50.7676 15.7042 50.662C16.1268 50.2395 16.2324 49.6056 15.8099 49.1831C11.9014 44.6409 9.78872 39.0423 9.78872 33.338Z" fill="#8C30F5"/>
<path d="M21.5141 53.9366C20.3521 53.1972 19.1901 52.3521 18.1338 51.5071C17.7113 51.0845 17.0775 51.1901 16.6549 51.6127C16.2324 52.0352 16.338 52.669 16.7606 53.0916C17.9225 54.0423 19.1901 54.993 20.4577 55.7324C20.669 55.838 20.7746 55.838 20.9859 55.838C21.3028 55.838 21.7253 55.6268 21.9366 55.3099C22.1479 54.8873 21.9366 54.1479 21.5141 53.9366Z" fill="#8C30F5"/>
<path d="M47.2887 10.9437C46.7605 10.6268 46.1267 10.838 45.8098 11.2606C45.4929 11.7887 45.7042 12.4225 46.1267 12.7394C53.3098 17.1761 57.6408 24.7817 57.6408 33.2324C57.6408 46.4366 46.8662 57.2113 33.662 57.2113C30.5986 57.2113 27.6408 56.6831 24.8943 55.5211C24.3662 55.3099 23.7324 55.5211 23.5211 56.1549C23.3098 56.6831 23.5211 57.3169 24.1549 57.5282C27.2183 58.6902 30.3873 59.324 33.7676 59.324C48.1338 59.324 59.8591 47.5986 59.8591 33.2324C59.8591 24.1479 55.2112 15.8028 47.2887 10.9437Z" fill="#8C30F5"/>
<path d="M34.8239 16.5423C34.8239 15.9085 34.4014 15.4859 33.7676 15.4859C33.1338 15.4859 32.7113 15.9085 32.7113 16.5423V33.2324C32.7113 33.8662 33.1338 34.2887 33.7676 34.2887C33.8732 34.2887 33.8732 34.2887 33.8732 34.2887H33.9789H44.6479C45.2817 34.2887 45.7042 33.8662 45.7042 33.2324C45.7042 32.5986 45.2817 32.1761 44.6479 32.1761H34.7183V16.5423H34.8239Z" fill="#8C30F5"/>
</svg>
