<svg width="40" height="41" viewBox="0 0 40 41" fill="none" xmlns="http://www.w3.org/2000/svg">
<path fill-rule="evenodd" clip-rule="evenodd" d="M18.3335 3.83325C16.1234 3.83325 14.0037 4.71123 12.4409 6.27403C10.8781 7.83683 10.0002 9.95645 10.0002 12.1666C10.0002 14.3767 10.8781 16.4963 12.4409 18.0591C14.0037 19.6219 16.1234 20.4999 18.3335 20.4999C20.5436 20.4999 22.6633 19.6219 24.2261 18.0591C25.7889 16.4963 26.6668 14.3767 26.6668 12.1666C26.6668 9.95645 25.7889 7.83683 24.2261 6.27403C22.6633 4.71123 20.5436 3.83325 18.3335 3.83325ZM18.3335 22.1666C14.3418 22.1666 10.7085 23.3233 8.03683 24.9533C6.7035 25.7666 5.5635 26.7266 4.74016 27.7699C3.93016 28.7933 3.3335 30.0216 3.3335 31.3333C3.3335 32.7416 4.0185 33.8516 5.00516 34.6433C5.9385 35.3933 7.17016 35.8899 8.4785 36.2366C11.1085 36.9316 14.6185 37.1666 18.3335 37.1666C18.7179 37.1666 19.0985 37.1638 19.4752 37.1583C19.7543 37.1544 20.028 37.0805 20.2711 36.9434C20.5143 36.8062 20.7191 36.6102 20.8667 36.3733C21.0144 36.1364 21.1002 35.8662 21.1162 35.5875C21.1322 35.3088 21.078 35.0305 20.9585 34.7783C20.3265 33.4406 19.9992 31.9794 20.0002 30.4999C20.0002 28.4133 20.6385 26.4799 21.7285 24.8783C21.8905 24.6402 21.9881 24.3643 22.0118 24.0774C22.0354 23.7904 21.9843 23.5022 21.8635 23.2409C21.7426 22.9795 21.5561 22.754 21.3222 22.5861C21.0882 22.4183 20.8148 22.314 20.5285 22.2833C19.8107 22.2055 19.0791 22.1666 18.3335 22.1666ZM31.4402 23.8283C31.2934 23.5765 31.0833 23.3676 30.8306 23.2223C30.5779 23.0771 30.2916 23.0007 30.0002 23.0007C29.7087 23.0007 29.4224 23.0771 29.1697 23.2223C28.9171 23.3676 28.7069 23.5765 28.5602 23.8283L27.0435 26.4316L24.1002 27.0683C23.8152 27.1299 23.5514 27.2652 23.335 27.4607C23.1187 27.6562 22.9575 27.9051 22.8674 28.1824C22.7773 28.4597 22.7616 28.7558 22.8217 29.0411C22.8819 29.3264 23.0158 29.5909 23.2102 29.8082L25.2168 32.0549L24.9135 35.0516C24.8841 35.3416 24.9313 35.6342 25.0503 35.9003C25.1693 36.1663 25.3561 36.3965 25.5918 36.5679C25.8276 36.7392 26.1042 36.8458 26.394 36.8768C26.6839 36.9079 26.9768 36.8624 27.2435 36.7449L30.0002 35.5283L32.7568 36.7449C33.0236 36.8624 33.3165 36.9079 33.6063 36.8768C33.8961 36.8458 34.1727 36.7392 34.4085 36.5679C34.6443 36.3965 34.831 36.1663 34.95 35.9003C35.0691 35.6342 35.1162 35.3416 35.0868 35.0516L34.7835 32.0532L36.7902 29.8082C36.9845 29.5909 37.1185 29.3264 37.1786 29.0411C37.2388 28.7558 37.223 28.4597 37.133 28.1824C37.0429 27.9051 36.8816 27.6562 36.6653 27.4607C36.449 27.2652 36.1852 27.1299 35.9002 27.0683L32.9568 26.4316L31.4402 23.8283Z" fill="#8C30F5"/>
</svg>
