<svg width="63" height="63" viewBox="0 0 63 63" fill="none" xmlns="http://www.w3.org/2000/svg">
<path d="M6.20421 50.3099C3.56336 46.507 2.29577 41.9648 2.29577 37.3169C2.29577 24.5352 12.6479 14.0775 25.5352 14.0775C30.0775 14.0775 34.4084 15.3451 38.1056 17.7746C38.6338 18.0915 39.2676 17.9859 39.5845 17.4577C39.9014 16.9296 39.7958 16.2958 39.2676 15.9789C35.1479 13.338 30.3944 11.8592 25.5352 11.8592C11.5915 11.8592 0.183098 23.162 0.183098 37.2113C0.183098 42.2817 1.66198 47.1408 4.51409 51.3662C4.72536 51.6831 5.04225 51.7887 5.35915 51.7887C5.57042 51.7887 5.78169 51.6831 5.99296 51.5775C6.41549 51.4718 6.52111 50.838 6.20421 50.3099Z" fill="#8C30F5"/>
<path d="M45.1831 23.162C44.6549 23.4789 44.5493 24.1127 44.8662 24.6408C47.4014 28.4437 48.669 32.7746 48.669 37.4225C48.669 50.2042 38.3169 60.662 25.4296 60.662C18.7746 60.662 12.4366 57.8099 7.99999 52.7394C7.57745 52.3169 6.94366 52.2113 6.52112 52.6338C6.09859 53.0563 5.99295 53.6901 6.41548 54.1127C11.2746 59.6056 18.1408 62.7747 25.4296 62.7747C39.3732 62.7747 50.7817 51.4718 50.7817 37.4225C50.7817 32.4577 49.3028 27.7042 46.662 23.4789C46.2394 22.9507 45.6056 22.8451 45.1831 23.162Z" fill="#8C30F5"/>
<path d="M33.1408 25.3803C33.4577 24.8521 33.2465 24.2183 32.7183 23.9014C30.5 22.7394 27.9648 22.1056 25.4296 22.1056C17.0845 22.1056 10.2183 28.9718 10.2183 37.3169C10.2183 45.662 17.0845 52.5281 25.4296 52.5281C33.7746 52.5281 40.6408 45.662 40.6408 37.3169C40.6408 34.676 39.9014 32.0352 38.6338 29.7113C38.3169 29.1831 37.6831 29.0775 37.1549 29.2887C36.6268 29.6056 36.5211 30.2394 36.7324 30.7676C37.8944 32.7746 38.4225 34.9929 38.4225 37.3169C38.4225 44.5 32.507 50.4155 25.3239 50.4155C18.1408 50.4155 12.2253 44.5 12.2253 37.3169C12.2253 30.1338 18.1408 24.2183 25.3239 24.2183C27.5422 24.2183 29.6549 24.7465 31.5563 25.8028C32.1901 26.1197 32.8239 25.9084 33.1408 25.3803Z" fill="#8C30F5"/>
<path d="M25.4296 33.6197C26.0634 33.6197 26.4859 33.1972 26.4859 32.5634C26.4859 31.9296 26.0634 31.507 25.4296 31.507C22.2606 31.507 19.6197 34.1479 19.6197 37.3169C19.6197 40.4859 22.2606 43.1268 25.4296 43.1268C28.5986 43.1268 31.2394 40.4859 31.2394 37.3169C31.2394 36.6831 30.8169 36.2606 30.1831 36.2606C29.5493 36.2606 29.1268 36.6831 29.1268 37.3169C29.1268 39.324 27.4366 41.0141 25.4296 41.0141C23.4225 41.0141 21.7324 39.324 21.7324 37.3169C21.7324 35.3099 23.4225 33.6197 25.4296 33.6197Z" fill="#8C30F5"/>
<path d="M62.0845 10.3803C61.8733 9.95774 61.5563 9.74648 61.1338 9.74648H53.2113V1.82394C53.2113 1.40141 53 0.978869 52.5775 0.873235C52.1549 0.661967 51.7324 0.767598 51.4155 1.0845L44.5493 7.73943C44.338 7.9507 44.2324 8.2676 44.2324 8.47887V17.3521L24.6901 36.7887C24.2676 37.2113 24.2676 37.8451 24.6901 38.2676C24.9014 38.4789 25.2183 38.5845 25.4296 38.5845C25.6409 38.5845 25.9578 38.4789 26.169 38.2676L45.7113 18.7254H54.4789C54.7958 18.7254 55.0071 18.6197 55.2183 18.4084L61.8732 11.5422C62.1901 11.2253 62.2958 10.6972 62.0845 10.3803ZM50.993 4.14788V10.2746L47.7183 13.5493L46.2395 15.0282V8.79577L50.993 4.14788ZM54.0564 16.6127H47.824L51.6268 12.8099L51.7324 12.7042L52.5775 11.8592H58.7042L54.0564 16.6127Z" fill="#8C30F5"/>
</svg>
