<svg width="40" height="40" viewBox="0 0 40 40" fill="none" xmlns="http://www.w3.org/2000/svg">
<path d="M12.2895 5.62276C11.693 6.2193 11.4227 6.97931 11.2932 7.94247C11.1667 8.88346 11.1667 10.0895 11.1667 11.6284L11.1667 11.6667V28.3333L11.1667 28.3716C11.1667 29.9105 11.1667 31.1165 11.2932 32.0575C11.4227 33.0207 11.693 33.7807 12.2895 34.3772C12.886 34.9738 13.6461 35.244 14.6092 35.3735C15.5502 35.5 16.7563 35.5 18.2952 35.5H18.3334H21.6667H21.705C23.2439 35.5 24.4499 35.5 25.3909 35.3735C26.3541 35.244 27.1141 34.9738 27.7107 34.3772C28.3072 33.7807 28.5774 33.0207 28.7069 32.0575C28.8334 31.1165 28.8334 29.9105 28.8334 28.3716V28.3333V11.6667V11.6284C28.8334 10.0895 28.8334 8.88346 28.7069 7.94247C28.5774 6.97931 28.3072 6.2193 27.7107 5.62276C27.1141 5.02622 26.3541 4.75599 25.3909 4.6265C24.45 4.49998 23.2439 4.49999 21.705 4.5L21.6667 4.5H18.3334L18.2952 4.5C16.7562 4.49999 15.5502 4.49998 14.6092 4.6265C13.6461 4.75599 12.886 5.02622 12.2895 5.62276Z" stroke="#8C30F5"/>
<path d="M11.6667 26.6667H28.3334" stroke="#8C30F5"/>
</svg>
