<svg width="40" height="41" viewBox="0 0 40 41" fill="none" xmlns="http://www.w3.org/2000/svg">
<path d="M20.0002 17.1705C21.7683 17.1705 23.464 16.4681 24.7142 15.2179C25.9645 13.9676 26.6668 12.2719 26.6668 10.5038C26.6668 8.73571 25.9645 7.04002 24.7142 5.78978C23.464 4.53954 21.7683 3.83716 20.0002 3.83716C18.2321 3.83716 16.5364 4.53954 15.2861 5.78978C14.0359 7.04002 13.3335 8.73571 13.3335 10.5038C13.3335 12.2719 14.0359 13.9676 15.2861 15.2179C16.5364 16.4681 18.2321 17.1705 20.0002 17.1705ZM9.16683 22.1705C10.2719 22.1705 11.3317 21.7315 12.1131 20.9501C12.8945 20.1687 13.3335 19.1089 13.3335 18.0038C13.3335 16.8988 12.8945 15.8389 12.1131 15.0575C11.3317 14.2761 10.2719 13.8372 9.16683 13.8372C8.06176 13.8372 7.00195 14.2761 6.22055 15.0575C5.43915 15.8389 5.00016 16.8988 5.00016 18.0038C5.00016 19.1089 5.43915 20.1687 6.22055 20.9501C7.00195 21.7315 8.06176 22.1705 9.16683 22.1705ZM35.0002 18.0038C35.0002 19.1089 34.5612 20.1687 33.7798 20.9501C32.9984 21.7315 31.9386 22.1705 30.8335 22.1705C29.7284 22.1705 28.6686 21.7315 27.8872 20.9501C27.1058 20.1687 26.6668 19.1089 26.6668 18.0038C26.6668 16.8988 27.1058 15.8389 27.8872 15.0575C28.6686 14.2761 29.7284 13.8372 30.8335 13.8372C31.9386 13.8372 32.9984 14.2761 33.7798 15.0575C34.5612 15.8389 35.0002 16.8988 35.0002 18.0038ZM20.0002 18.8372C22.2103 18.8372 24.3299 19.7151 25.8927 21.2779C27.4555 22.8407 28.3335 24.9604 28.3335 27.1705L28.3335 37.1705L11.6668 37.1705L11.6668 27.1705C11.6668 24.9604 12.5448 22.8407 14.1076 21.2779C15.6704 19.7151 17.79 18.8372 20.0002 18.8372ZM8.3335 27.1705C8.3335 26.0155 8.50016 24.9005 8.8135 23.8472L8.53016 23.8705C7.10163 24.0273 5.78127 24.706 4.82227 25.7763C3.86327 26.8467 3.33312 28.2334 3.3335 29.6705L3.3335 37.1705L8.3335 37.1705L8.3335 27.1705ZM36.6668 37.1705L36.6668 29.6705C36.667 28.1844 36.1 26.7543 35.0816 25.6721C34.0632 24.5899 32.6702 23.9372 31.1868 23.8472C31.4985 24.9005 31.6668 26.0155 31.6668 27.1705L31.6668 37.1705L36.6668 37.1705Z" fill="#8C30F5"/>
</svg>
