<svg width="68" height="57" viewBox="0 0 68 57" fill="none" xmlns="http://www.w3.org/2000/svg">
<path d="M14.4296 9.00704H5.7676C5.13379 9.00704 4.71126 9.42958 4.71126 10.0634C4.71126 10.6972 5.13379 11.1197 5.7676 11.1197H14.4296C15.0634 11.1197 15.4859 10.6972 15.4859 10.0634C15.4859 9.42958 15.0634 9.00704 14.4296 9.00704Z" fill="#8C30F5"/>
<path d="M14.4296 14.0775H5.7676C5.13379 14.0775 4.71126 14.5 4.71126 15.1338C4.71126 15.7676 5.13379 16.1901 5.7676 16.1901H14.4296C15.0634 16.1901 15.4859 15.7676 15.4859 15.1338C15.4859 14.5 15.0634 14.0775 14.4296 14.0775Z" fill="#8C30F5"/>
<path d="M14.4296 19.1479H5.7676C5.13379 19.1479 4.71126 19.5704 4.71126 20.2042C4.71126 20.838 5.13379 21.2606 5.7676 21.2606H14.4296C15.0634 21.2606 15.4859 20.838 15.4859 20.2042C15.4859 19.5704 15.0634 19.1479 14.4296 19.1479Z" fill="#8C30F5"/>
<path d="M14.4296 24.3239H5.7676C5.13379 24.3239 4.71126 24.7465 4.71126 25.3803C4.71126 26.0141 5.13379 26.4366 5.7676 26.4366H14.4296C15.0634 26.4366 15.4859 26.0141 15.4859 25.3803C15.4859 24.7465 15.0634 24.3239 14.4296 24.3239Z" fill="#8C30F5"/>
<path d="M14.4296 29.3944H5.7676C5.13379 29.3944 4.71126 29.8169 4.71126 30.4507C4.71126 31.0845 5.13379 31.507 5.7676 31.507H14.4296C15.0634 31.507 15.4859 31.0845 15.4859 30.4507C15.4859 29.8169 15.0634 29.3944 14.4296 29.3944Z" fill="#8C30F5"/>
<path d="M10.0986 38.9014C7.56338 38.9014 5.55634 40.9084 5.55634 43.4436C5.55634 45.9789 7.56338 47.9859 10.0986 47.9859C12.6338 47.9859 14.6408 45.9789 14.6408 43.4436C14.6408 40.9084 12.6338 38.9014 10.0986 38.9014ZM10.0986 45.8732C8.72535 45.8732 7.66901 44.8169 7.66901 43.4436C7.66901 42.0704 8.72535 41.0141 10.0986 41.0141C11.4718 41.0141 12.5282 42.0704 12.5282 43.4436C12.5282 44.8169 11.4718 45.8732 10.0986 45.8732Z" fill="#8C30F5"/>
<path d="M26.7887 11.8591L35.3451 10.8028C35.8732 10.6972 36.2958 10.169 36.2958 9.64084C36.1901 9.11267 35.662 8.69013 35.1338 8.69013L26.5775 9.74647C26.0493 9.8521 25.6268 10.3803 25.6268 10.9084C25.7324 11.4366 26.1549 11.8591 26.6831 11.8591H26.7887Z" fill="#8C30F5"/>
<path d="M27.4225 16.9296L35.9789 15.8732C36.507 15.7676 36.9296 15.2394 36.9296 14.7113C36.8239 14.1831 36.2958 13.7606 35.7676 13.7606L27.2113 14.8169C26.6831 14.9225 26.2606 15.4507 26.2606 15.9789C26.3662 16.507 26.7887 16.9296 27.3169 16.9296C27.4225 16.9296 27.4225 16.9296 27.4225 16.9296Z" fill="#8C30F5"/>
<path d="M28.162 21.8944L36.7183 20.838C37.2465 20.7324 37.669 20.2042 37.669 19.6761C37.5634 19.1479 37.1408 18.7253 36.507 18.7253L27.9507 19.7817C27.4225 19.8873 27 20.4155 27 20.9437C27.1056 21.4718 27.5282 21.8944 28.0563 21.8944C28.0563 22 28.0563 22 28.162 21.8944Z" fill="#8C30F5"/>
<path d="M28.7958 26.9648L37.3521 25.9085C37.8803 25.8028 38.3028 25.2746 38.3028 24.7465C38.1972 24.2183 37.669 23.7958 37.1408 23.7958L28.5845 24.8521C28.0563 24.9577 27.6338 25.4859 27.6338 26.0141C27.7394 26.5423 28.162 26.9648 28.6901 26.9648C28.6901 26.9648 28.6901 26.9648 28.7958 26.9648Z" fill="#8C30F5"/>
<path d="M29.1127 30.0282C28.5845 30.1338 28.162 30.662 28.162 31.1901C28.2676 31.7183 28.6901 32.1408 29.2183 32.1408H29.3239L37.8803 31.0845C38.4084 30.9789 38.831 30.4507 38.831 29.9225C38.7253 29.3944 38.1972 28.9718 37.669 28.9718L29.1127 30.0282Z" fill="#8C30F5"/>
<path d="M34.6056 38.9014C33.4436 39.0071 32.2817 39.6409 31.5422 40.5916C30.8028 41.5423 30.4859 42.7042 30.5915 43.9718C30.6972 45.1338 31.331 46.2958 32.2817 47.0352C33.1267 47.669 34.0774 47.9859 35.0281 47.9859C35.2394 47.9859 35.4507 47.9859 35.6619 47.9859C38.1972 47.669 39.8873 45.3451 39.5704 42.9155C39.4648 40.2747 37.1408 38.5845 34.6056 38.9014ZM35.5563 45.7676C34.9225 45.8733 34.2887 45.662 33.7605 45.2395C33.2324 44.8169 32.9155 44.2887 32.8098 43.6549C32.7042 43.0211 32.9155 42.3873 33.338 41.8592C33.7605 41.331 34.2887 41.0141 34.9225 40.9085C35.0281 40.9085 35.1338 40.9085 35.2394 40.9085C36.4014 40.9085 37.4577 41.8592 37.669 43.0211C37.8803 44.3944 36.9296 45.662 35.5563 45.7676Z" fill="#8C30F5"/>
<path d="M63.4437 0.873237H49.9225C48.0211 0.873237 46.4366 2.45774 46.4366 4.35915V49.2535L40.6268 3.19718C40.4155 1.29577 38.6197 -0.0774673 36.7183 0.239434L23.3028 1.92958C21.9296 2.14084 20.8732 2.98591 20.4507 4.25352C20.4507 2.35211 18.8662 0.873237 16.9648 0.873237H3.5493C1.64789 0.873237 0.063385 2.45774 0.063385 4.35915V52.3169C0.063385 54.2183 1.64789 55.8028 3.5493 55.8028H17.0704C18.9718 55.8028 20.5563 54.2183 20.5563 52.3169V7.3169L26.4718 53.3732C26.5775 54.3239 27.1056 55.0634 27.7394 55.6972C28.3732 56.1197 29.1127 56.4366 29.8521 56.4366C29.9577 56.4366 30.169 56.4366 30.2747 56.4366L43.6902 54.7465C45.0634 54.5352 46.1197 53.6901 46.5423 52.4225C46.5423 54.3239 48.1268 55.8028 50.0282 55.8028H63.5493C65.4507 55.8028 67.0352 54.2183 67.0352 52.3169V4.35915C66.9296 2.45774 65.3451 0.873237 63.4437 0.873237ZM18.4437 52.2113C18.4437 52.9507 17.8099 53.5845 17.0704 53.5845H3.5493C2.80986 53.5845 2.17606 52.9507 2.17606 52.2113V4.35915C2.17606 3.61972 2.80986 2.98591 3.5493 2.98591H17.0704C17.8099 2.98591 18.4437 3.61972 18.4437 4.35915V52.2113ZM43.4789 52.5282L30.0634 54.2183C29.3239 54.3239 28.6901 53.7958 28.5845 53.0563L22.4577 5.52112C22.3521 4.78169 22.8803 4.14789 23.6197 4.04225L37.0352 2.35211C37.1409 2.35211 37.1408 2.35211 37.2465 2.35211C37.8803 2.35211 38.5141 2.88028 38.6197 3.51408L44.7465 51.0493C44.7465 51.7887 44.2183 52.4225 43.4789 52.5282ZM64.8169 52.2113C64.8169 52.9507 64.1831 53.5845 63.4437 53.5845H49.9225C49.1831 53.5845 48.5493 52.9507 48.5493 52.2113V4.35915C48.5493 3.61972 49.1831 2.98591 49.9225 2.98591H63.4437C64.1831 2.98591 64.8169 3.61972 64.8169 4.35915V52.2113Z" fill="#8C30F5"/>
<path d="M60.8028 9.00704H52.1408C51.507 9.00704 51.0845 9.42958 51.0845 10.0634C51.0845 10.6972 51.507 11.1197 52.1408 11.1197H60.8028C61.4366 11.1197 61.8591 10.6972 61.8591 10.0634C61.8591 9.42958 61.4366 9.00704 60.8028 9.00704Z" fill="#8C30F5"/>
<path d="M60.8028 14.0775H52.1408C51.507 14.0775 51.0845 14.5 51.0845 15.1338C51.0845 15.7676 51.507 16.1901 52.1408 16.1901H60.8028C61.4366 16.1901 61.8591 15.7676 61.8591 15.1338C61.8591 14.5 61.4366 14.0775 60.8028 14.0775Z" fill="#8C30F5"/>
<path d="M60.8028 19.1479H52.1408C51.507 19.1479 51.0845 19.5704 51.0845 20.2042C51.0845 20.838 51.507 21.2606 52.1408 21.2606H60.8028C61.4366 21.2606 61.8591 20.838 61.8591 20.2042C61.8591 19.5704 61.4366 19.1479 60.8028 19.1479Z" fill="#8C30F5"/>
<path d="M60.8028 24.3239H52.1408C51.507 24.3239 51.0845 24.7465 51.0845 25.3803C51.0845 26.0141 51.507 26.4366 52.1408 26.4366H60.8028C61.4366 26.4366 61.8591 26.0141 61.8591 25.3803C61.8591 24.7465 61.4366 24.3239 60.8028 24.3239Z" fill="#8C30F5"/>
<path d="M60.8028 29.3944H52.1408C51.507 29.3944 51.0845 29.8169 51.0845 30.4507C51.0845 31.0845 51.507 31.507 52.1408 31.507H60.8028C61.4366 31.507 61.8591 31.0845 61.8591 30.4507C61.8591 29.8169 61.4366 29.3944 60.8028 29.3944Z" fill="#8C30F5"/>
<path d="M56.4718 38.9014C53.9366 38.9014 51.9296 40.9084 51.9296 43.4436C51.9296 45.9789 53.9366 47.9859 56.4718 47.9859C59.007 47.9859 61.0141 45.9789 61.0141 43.4436C61.0141 40.9084 59.007 38.9014 56.4718 38.9014ZM56.4718 45.8732C55.0986 45.8732 54.0422 44.8169 54.0422 43.4436C54.0422 42.0704 55.0986 41.0141 56.4718 41.0141C57.8451 41.0141 58.9014 42.0704 58.9014 43.4436C58.9014 44.8169 57.8451 45.8732 56.4718 45.8732Z" fill="#8C30F5"/>
</svg>
