<svg width="32" height="32" viewBox="0 0 32 32" fill="none" xmlns="http://www.w3.org/2000/svg">
<path fill-rule="evenodd" clip-rule="evenodd" d="M22.1841 14.1258C22.5985 14.1263 22.9697 14.3823 23.1173 14.7695C23.1557 14.8703 23.1875 14.9744 23.2124 15.0814L23.2124 15.0814C23.2547 15.2627 23.4626 15.3488 23.6207 15.2505C25.6621 13.9815 28.0185 16.3379 26.7495 18.3794C26.6512 18.5374 26.7373 18.7453 26.9186 18.7876C29.2595 19.3337 29.2595 22.6663 26.9186 23.2124C26.7373 23.2547 26.6512 23.4626 26.7495 23.6207C28.0185 25.6621 25.6621 28.0185 23.6207 26.7495C23.4626 26.6512 23.2547 26.7373 23.2124 26.9186C22.6663 29.2594 19.3338 29.2594 18.7876 26.9186C18.7453 26.7373 18.5374 26.6512 18.3794 26.7495C16.3379 28.0185 13.9815 25.6621 15.2505 23.6207C15.3488 23.4626 15.2627 23.2547 15.0814 23.2124C15.0814 23.2124 15.0814 23.2124 15.0814 23.2124M22.1841 14.1258C21.7697 14.1253 21.3979 14.3805 21.2494 14.7674L22.1841 14.1258ZM21.2494 14.7674C21.1817 14.9436 21.0429 15.0963 20.7751 15.1588L21.2494 14.7674ZM22.0386 16.7794C21.8001 16.9243 21.5298 17.0364 21.2295 17.1065C20.8202 17.202 20.6059 17.6366 20.7522 18.0101C20.834 18.0034 20.9167 18 21 18C22.6569 18 24 19.3431 24 21C24 22.6569 22.6569 24 21 24C19.7726 24 18.7178 23.2632 18.2531 22.2075C17.8721 22.1647 17.4879 22.0358 17.1225 21.8086L17.5401 21.1369L17.1225 21.8086C16.9261 21.6866 16.6989 21.6788 16.5074 21.7578C17.3135 22.4568 17.5661 23.6841 16.9491 24.6766C16.8967 24.7608 16.8961 24.817 16.9017 24.8538C16.9089 24.9011 16.9354 24.9599 16.9877 25.0123C17.0401 25.0647 17.0989 25.0911 17.1463 25.0984C17.183 25.1039 17.2392 25.1033 17.3235 25.0509C18.6446 24.2296 20.3818 24.9492 20.7353 26.4642C20.7578 26.5607 20.7971 26.601 20.8271 26.623C20.8657 26.6514 20.926 26.6742 21 26.6742C21.0741 26.6742 21.1344 26.6514 21.173 26.623C21.2029 26.601 21.2422 26.5607 21.2647 26.4642C21.6182 24.9492 23.3554 24.2296 24.6766 25.0509C24.7608 25.1033 24.817 25.1039 24.8538 25.0984C24.9011 25.0911 24.9599 25.0647 25.0123 25.0123C25.0647 24.9599 25.0911 24.9011 25.0984 24.8538C25.104 24.817 25.1033 24.7608 25.0509 24.6766C24.2296 23.3554 24.9492 21.6182 26.4642 21.2647C26.5607 21.2422 26.601 21.2029 26.623 21.173C26.6514 21.1344 26.6742 21.0741 26.6742 21C26.6742 20.9259 26.6514 20.8656 26.623 20.827C26.601 20.7971 26.5608 20.7578 26.4642 20.7353C24.9492 20.3818 24.2296 18.6446 25.0509 17.3234C25.1033 17.2392 25.104 17.183 25.0984 17.1462C25.0911 17.0989 25.0647 17.0401 25.0123 16.9877C24.9599 16.9354 24.9011 16.9089 24.8538 16.9017C24.817 16.8961 24.7608 16.8967 24.6766 16.9491C23.8063 17.4901 22.7555 17.3625 22.0386 16.7794ZM20.7751 15.1588C18.9902 15.5752 18.1425 17.6219 19.1101 19.1784L20.7751 15.1588ZM21 20C20.8522 20 20.7144 20.0314 20.5908 20.087C20.3187 20.2094 20.0061 20.2038 19.7385 20.0719C19.4709 19.9399 19.2762 19.6954 19.2076 19.405C19.1919 19.3389 19.1626 19.2628 19.1101 19.1784M21 20C21.5523 20 22 20.4477 22 21L21 20ZM14.1588 21.775C14.5752 19.9902 16.6219 19.1425 18.1784 20.1101C18.3856 20.2389 18.5651 20.2427 18.7144 20.1972C19.0047 20.1087 19.3195 20.1569 19.5701 20.3282C19.8207 20.4995 19.9799 20.7753 20.003 21.078C20.0421 21.5933 20.4741 22 21 22C21.5523 22 22 21.5523 22 21M14.1588 21.775L14.9462 21.9587L14.1588 21.775ZM15.0814 23.2124C14.9497 23.1817 14.8225 23.1407 14.7005 23.0897C14.2184 22.8881 13.9728 22.3492 14.137 21.8531C14.1449 21.829 14.1523 21.803 14.1588 21.775L14.9462 21.9587" fill="#8C30F5"/>
<path fill-rule="evenodd" clip-rule="evenodd" d="M10.8935 6.77054C11.5369 4.01271 15.4631 4.0127 16.1065 6.77054C16.2118 7.22167 16.7291 7.43594 17.1225 7.19137C19.5275 5.69626 22.3037 8.47246 20.8086 10.8775C20.5641 11.2709 20.7783 11.7882 21.2295 11.8935C23.9873 12.5369 23.9873 16.4631 21.2295 17.1065C20.7783 17.2118 20.5641 17.7291 20.8086 18.1225C22.3037 20.5275 19.5275 23.3037 17.1225 21.8086C16.7291 21.5641 16.2118 21.7783 16.1065 22.2295C15.4631 24.9873 11.5369 24.9873 10.8935 22.2295C10.7882 21.7783 10.2709 21.5641 9.87752 21.8086C7.47246 23.3037 4.69627 20.5275 6.19137 18.1225C6.43594 17.7291 6.22167 17.2118 5.77054 17.1065C3.0127 16.4631 3.01271 12.5369 5.77054 11.8935C6.22167 11.7882 6.43594 11.2709 6.19137 10.8775C4.69626 8.47246 7.47246 5.69626 9.87752 7.19137C10.2709 7.43594 10.7882 7.22167 10.8935 6.77054ZM14.1588 7.22496C13.9962 6.5279 13.0038 6.5279 12.8412 7.22496C12.4248 9.00978 10.3781 9.85753 8.82162 8.88992C8.21373 8.51202 7.51202 9.21372 7.88992 9.82162C8.85753 11.3781 8.00978 13.4248 6.22496 13.8412C5.5279 14.0038 5.5279 14.9962 6.22496 15.1588C8.00978 15.5752 8.85753 17.6219 7.88992 19.1784C7.51202 19.7863 8.21373 20.488 8.82162 20.1101C10.3781 19.1425 12.4248 19.9902 12.8412 21.775C13.0038 22.4721 13.9962 22.4721 14.1588 21.775C14.5752 19.9902 16.6219 19.1425 18.1784 20.1101C18.7863 20.488 19.488 19.7863 19.1101 19.1784C18.1425 17.6219 18.9902 15.5752 20.775 15.1588C21.4721 14.9962 21.4721 14.0038 20.775 13.8412C18.9902 13.4248 18.1425 11.3781 19.1101 9.82162C19.488 9.21372 18.7863 8.51202 18.1784 8.88992C16.6219 9.85753 14.5752 9.00978 14.1588 7.22496Z" fill="white"/>
<path fill-rule="evenodd" clip-rule="evenodd" d="M13.5 13C12.6716 13 12 13.6716 12 14.5C12 15.3284 12.6716 16 13.5 16C14.3284 16 15 15.3284 15 14.5C15 13.6716 14.3284 13 13.5 13ZM10 14.5C10 12.567 11.567 11 13.5 11C15.433 11 17 12.567 17 14.5C17 16.433 15.433 18 13.5 18C11.567 18 10 16.433 10 14.5Z" fill="#8C30F5"/>
</svg>
