<svg width="132" height="132" viewBox="0 0 132 132" fill="none" xmlns="http://www.w3.org/2000/svg">
<g filter="url(#filter0_d_206_248)">
<rect x="16" y="9" width="100" height="100" rx="16" fill="#2B2B2B"/>
<path d="M76.7556 42.0469C76.7556 41.7461 76.5319 41.5 76.2585 41.5H52.3948C52.1214 41.5 51.8977 41.7461 51.8977 42.0469V45.3281C51.8977 45.6289 52.1214 45.875 52.3948 45.875H76.2585C76.5319 45.875 76.7556 45.6289 76.7556 45.3281V42.0469ZM76.2585 51.3438H52.3948C52.1214 51.3438 51.8977 51.5898 51.8977 51.8906V55.1719C51.8977 55.4727 52.1214 55.7188 52.3948 55.7188H76.2585C76.5319 55.7188 76.7556 55.4727 76.7556 55.1719V51.8906C76.7556 51.5898 76.5319 51.3438 76.2585 51.3438ZM63.8295 61.1875H52.3948C52.1214 61.1875 51.8977 61.4336 51.8977 61.7344V65.0156C51.8977 65.3164 52.1214 65.5625 52.3948 65.5625H63.8295C64.1029 65.5625 64.3267 65.3164 64.3267 65.0156V61.7344C64.3267 61.4336 64.1029 61.1875 63.8295 61.1875ZM60.8465 82.2422H46.9261V34.1172H81.7272V57.6328C81.7272 57.9336 81.951 58.1797 82.2244 58.1797H85.7045C85.9779 58.1797 86.2017 57.9336 86.2017 57.6328V31.3828C86.2017 30.1729 85.313 29.1953 84.213 29.1953H44.4403C43.3403 29.1953 42.4517 30.1729 42.4517 31.3828V84.9766C42.4517 86.1865 43.3403 87.1641 44.4403 87.1641H60.8465C61.12 87.1641 61.3437 86.918 61.3437 86.6172V82.7891C61.3437 82.4883 61.12 82.2422 60.8465 82.2422ZM83.0198 77.1562C84.822 75.3584 85.9531 72.7607 85.9531 69.8691C85.9531 64.4346 81.9447 60.0254 77.0042 60.0254C72.0637 60.0254 68.0554 64.4346 68.0554 69.8691C68.0554 72.7607 69.1864 75.3584 70.9886 77.1562C67.4463 79.3779 65.0103 83.4932 64.8238 88.2373C64.8114 88.5449 65.0413 88.8047 65.321 88.8047H68.3101C68.5712 88.8047 68.7887 88.5791 68.8073 88.2852C69.0497 83.5547 72.6354 79.7812 77.0042 79.7812C81.373 79.7812 84.9588 83.5547 85.2011 88.2852C85.2136 88.5723 85.4311 88.8047 85.6983 88.8047H88.6875C88.9733 88.8047 89.197 88.5449 89.1846 88.2373C89.0044 83.4863 86.5621 79.3779 83.0198 77.1562ZM77.0042 64.4004C79.751 64.4004 81.9758 66.8477 81.9758 69.8691C81.9758 72.8906 79.751 75.3379 77.0042 75.3379C74.2574 75.3379 72.0326 72.8906 72.0326 69.8691C72.0326 66.8477 74.2574 64.4004 77.0042 64.4004Z" fill="#8C30F5"/>
</g>
<defs>
<filter id="filter0_d_206_248" x="0" y="0" width="132" height="132" filterUnits="userSpaceOnUse" color-interpolation-filters="sRGB">
<feFlood flood-opacity="0" result="BackgroundImageFix"/>
<feColorMatrix in="SourceAlpha" type="matrix" values="0 0 0 0 0 0 0 0 0 0 0 0 0 0 0 0 0 0 127 0" result="hardAlpha"/>
<feOffset dy="7"/>
<feGaussianBlur stdDeviation="8"/>
<feComposite in2="hardAlpha" operator="out"/>
<feColorMatrix type="matrix" values="0 0 0 0 0 0 0 0 0 0 0 0 0 0 0 0 0 0 0.25 0"/>
<feBlend mode="normal" in2="BackgroundImageFix" result="effect1_dropShadow_206_248"/>
<feBlend mode="normal" in="SourceGraphic" in2="effect1_dropShadow_206_248" result="shape"/>
</filter>
</defs>
</svg>
