<svg width="132" height="132" viewBox="0 0 132 132" fill="none" xmlns="http://www.w3.org/2000/svg">
<g filter="url(#filter0_d_206_224)">
<rect x="16" y="9" width="100" height="100" rx="16" fill="#2B2B2B"/>
<path d="M66.0002 53.1666C69.0944 53.1666 72.0618 51.9374 74.2497 49.7495C76.4377 47.5616 77.6668 44.5941 77.6668 41.4999C77.6668 38.4057 76.4377 35.4383 74.2497 33.2503C72.0618 31.0624 69.0944 29.8333 66.0002 29.8333C62.906 29.8333 59.9385 31.0624 57.7506 33.2503C55.5627 35.4383 54.3335 38.4057 54.3335 41.4999C54.3335 44.5941 55.5627 47.5616 57.7506 49.7495C59.9385 51.9374 62.906 53.1666 66.0002 53.1666ZM47.0418 61.9166C48.9757 61.9166 50.8304 61.1484 52.1978 59.7809C53.5653 58.4135 54.3335 56.5588 54.3335 54.6249C54.3335 52.691 53.5653 50.8364 52.1978 49.4689C50.8304 48.1015 48.9757 47.3333 47.0418 47.3333C45.108 47.3333 43.2533 48.1015 41.8858 49.4689C40.5184 50.8364 39.7502 52.691 39.7502 54.6249C39.7502 56.5588 40.5184 58.4135 41.8858 59.7809C43.2533 61.1484 45.108 61.9166 47.0418 61.9166ZM92.2502 54.6249C92.2502 56.5588 91.4819 58.4135 90.1145 59.7809C88.747 61.1484 86.8924 61.9166 84.9585 61.9166C83.0246 61.9166 81.17 61.1484 79.8025 59.7809C78.4351 58.4135 77.6668 56.5588 77.6668 54.6249C77.6668 52.691 78.4351 50.8364 79.8025 49.4689C81.17 48.1015 83.0246 47.3333 84.9585 47.3333C86.8924 47.3333 88.747 48.1015 90.1145 49.4689C91.4819 50.8364 92.2502 52.691 92.2502 54.6249ZM66.0002 56.0832C69.8679 56.0832 73.5772 57.6197 76.3121 60.3546C79.047 63.0895 80.5835 66.7988 80.5835 70.6666L80.5835 88.1666L51.4168 88.1666L51.4168 70.6666C51.4168 66.7988 52.9533 63.0895 55.6882 60.3546C58.4231 57.6197 62.1324 56.0832 66.0002 56.0832ZM45.5835 70.6666C45.5835 68.6453 45.8752 66.6941 46.4235 64.8507L45.9277 64.8916C43.4277 65.1661 41.1171 66.3537 39.4388 68.2268C37.7606 70.0999 36.8328 72.5266 36.8335 75.0416L36.8335 88.1666L45.5835 88.1666L45.5835 70.6666ZM95.1668 88.1666L95.1668 75.0416C95.1671 72.441 94.1749 69.9383 92.3927 68.0444C90.6105 66.1506 88.1726 65.0083 85.5768 64.8507C86.1222 66.6941 86.4168 68.6453 86.4168 70.6666L86.4168 88.1666L95.1668 88.1666Z" fill="#8C30F5"/>
</g>
<defs>
<filter id="filter0_d_206_224" x="0" y="0" width="132" height="132" filterUnits="userSpaceOnUse" color-interpolation-filters="sRGB">
<feFlood flood-opacity="0" result="BackgroundImageFix"/>
<feColorMatrix in="SourceAlpha" type="matrix" values="0 0 0 0 0 0 0 0 0 0 0 0 0 0 0 0 0 0 127 0" result="hardAlpha"/>
<feOffset dy="7"/>
<feGaussianBlur stdDeviation="8"/>
<feComposite in2="hardAlpha" operator="out"/>
<feColorMatrix type="matrix" values="0 0 0 0 0 0 0 0 0 0 0 0 0 0 0 0 0 0 0.25 0"/>
<feBlend mode="normal" in2="BackgroundImageFix" result="effect1_dropShadow_206_224"/>
<feBlend mode="normal" in="SourceGraphic" in2="effect1_dropShadow_206_224" result="shape"/>
</filter>
</defs>
</svg>
