<svg width="32" height="32" viewBox="0 0 32 32" fill="none" xmlns="http://www.w3.org/2000/svg">
<path fill-rule="evenodd" clip-rule="evenodd" d="M5.32176 21.5393C5.50312 21.4869 5.69561 21.4869 5.87698 21.5393C6.85984 21.8233 8.11533 22 9.5 22C10.8847 22 12.1402 21.8233 13.123 21.5393C13.3044 21.4869 13.4969 21.4869 13.6782 21.5393C14.5342 21.7866 15.3095 22.1256 15.8938 22.5655C16.4642 22.9951 17 23.6413 17 24.5C17 25.2239 16.6147 25.8013 16.162 26.213C15.7095 26.6244 15.1105 26.9491 14.4552 27.2011C13.1378 27.7078 11.3856 28 9.5 28C7.61443 28 5.8622 27.7078 4.54483 27.2011C3.88947 26.9491 3.29051 26.6244 2.83803 26.213C2.38527 25.8013 2 25.2239 2 24.5C2 23.6413 2.53578 22.9951 3.10624 22.5655C3.69047 22.1256 4.46583 21.7866 5.32176 21.5393ZM4.00104 24.5009C4.00796 24.5254 4.04105 24.6037 4.18357 24.7333C4.38893 24.92 4.74187 25.1341 5.26278 25.3344C6.29795 25.7326 7.79572 26 9.5 26C11.2043 26 12.7021 25.7326 13.7372 25.3344C14.2581 25.1341 14.6111 24.92 14.8164 24.7333C14.959 24.6037 14.992 24.5253 14.999 24.5009C14.9911 24.4724 14.9441 24.354 14.6907 24.1632C14.41 23.9519 13.9736 23.7325 13.3851 23.5411C12.2541 23.8349 10.9179 24 9.5 24C8.08205 24 6.74589 23.8349 5.6149 23.5411C5.02636 23.7325 4.58998 23.9519 4.30931 24.1632C4.05594 24.354 4.00893 24.4724 4.00104 24.5009ZM15.0006 24.4926C15.0007 24.4926 15.0006 24.4939 15.0001 24.4964C15.0002 24.4938 15.0005 24.4926 15.0006 24.4926ZM3.9999 24.4964C3.99937 24.4939 3.99929 24.4926 3.99939 24.4926C3.99949 24.4926 3.99976 24.4938 3.9999 24.4964Z" fill="white"/>
<path fill-rule="evenodd" clip-rule="evenodd" d="M5.32176 17.0393C5.50312 16.9869 5.69561 16.9869 5.87698 17.0393C6.85984 17.3233 8.11533 17.5 9.5 17.5C10.8847 17.5 12.1402 17.3233 13.123 17.0393C13.3044 16.9869 13.4969 16.9869 13.6782 17.0393C14.5342 17.2866 15.3095 17.6256 15.8938 18.0655C16.4642 18.4951 17 19.1413 17 20C17 20.7239 16.6147 21.3013 16.162 21.713C15.7095 22.1244 15.1105 22.4491 14.4552 22.7011C13.1378 23.2078 11.3856 23.5 9.5 23.5C7.61443 23.5 5.8622 23.2078 4.54483 22.7011C3.88947 22.4491 3.29051 22.1244 2.83803 21.713C2.38527 21.3013 2 20.7239 2 20C2 19.1413 2.53578 18.4951 3.10624 18.0655C3.69047 17.6256 4.46583 17.2866 5.32176 17.0393ZM4.00104 20.0009C4.00796 20.0253 4.04105 20.1037 4.18357 20.2333C4.38893 20.42 4.74187 20.6341 5.26278 20.8344C6.29795 21.2326 7.79572 21.5 9.5 21.5C11.2043 21.5 12.7021 21.2326 13.7372 20.8344C14.2581 20.6341 14.6111 20.42 14.8164 20.2333C14.959 20.1037 14.992 20.0253 14.999 20.0009C14.9911 19.9724 14.9441 19.854 14.6907 19.6632C14.41 19.4519 13.9736 19.2325 13.3851 19.0411C12.2541 19.3349 10.9179 19.5 9.5 19.5C8.08205 19.5 6.74589 19.3349 5.6149 19.0411C5.02636 19.2325 4.58998 19.4519 4.30931 19.6632C4.05594 19.854 4.00893 19.9724 4.00104 20.0009ZM15.0006 19.9926C15.0007 19.9926 15.0006 19.9938 15.0001 19.9964C15.0002 19.9938 15.0005 19.9926 15.0006 19.9926ZM3.9999 19.9964C3.99937 19.9938 3.99929 19.9926 3.99939 19.9926C3.99949 19.9926 3.99976 19.9938 3.9999 19.9964Z" fill="#8C30F5"/>
<path fill-rule="evenodd" clip-rule="evenodd" d="M5.32176 13.0393C5.50312 12.9869 5.69561 12.9869 5.87698 13.0393C6.85984 13.3233 8.11533 13.5 9.5 13.5C10.8847 13.5 12.1402 13.3233 13.123 13.0393C13.3044 12.9869 13.4969 12.9869 13.6782 13.0393C14.5342 13.2866 15.3095 13.6256 15.8938 14.0655C16.4642 14.4951 17 15.1413 17 16C17 16.7239 16.6147 17.3013 16.162 17.713C15.7095 18.1244 15.1105 18.4491 14.4552 18.7011C13.1378 19.2078 11.3856 19.5 9.5 19.5C7.61443 19.5 5.8622 19.2078 4.54483 18.7011C3.88947 18.4491 3.29051 18.1244 2.83803 17.713C2.38527 17.3013 2 16.7239 2 16C2 15.1413 2.53578 14.4951 3.10624 14.0655C3.69047 13.6256 4.46583 13.2866 5.32176 13.0393ZM4.00104 16.0009C4.00796 16.0253 4.04105 16.1037 4.18357 16.2333C4.38893 16.42 4.74187 16.6341 5.26278 16.8344C6.29795 17.2326 7.79572 17.5 9.5 17.5C11.2043 17.5 12.7021 17.2326 13.7372 16.8344C14.2581 16.6341 14.6111 16.42 14.8164 16.2333C14.959 16.1037 14.992 16.0253 14.999 16.0009C14.9911 15.9724 14.9441 15.854 14.6907 15.6632C14.41 15.4519 13.9736 15.2325 13.3851 15.0411C12.2541 15.3349 10.9179 15.5 9.5 15.5C8.08205 15.5 6.74589 15.3349 5.6149 15.0411C5.02636 15.2325 4.58998 15.4519 4.30931 15.6632C4.05594 15.854 4.00893 15.9724 4.00104 16.0009ZM15.0006 15.9926C15.0007 15.9926 15.0006 15.9938 15.0001 15.9964C15.0002 15.9938 15.0005 15.9926 15.0006 15.9926ZM3.9999 15.9964C3.99937 15.9938 3.99929 15.9926 3.99939 15.9926C3.99949 15.9926 3.99976 15.9938 3.9999 15.9964Z" fill="white"/>
<path fill-rule="evenodd" clip-rule="evenodd" d="M5.32176 9.03931C5.50312 8.9869 5.69561 8.9869 5.87698 9.03931C6.85984 9.32332 8.11533 9.5 9.5 9.5C10.8847 9.5 12.1402 9.32332 13.123 9.03931C13.3044 8.9869 13.4969 8.9869 13.6782 9.03931C14.5342 9.28664 15.3095 9.62559 15.8938 10.0655C16.4642 10.4951 17 11.1413 17 12C17 12.7239 16.6147 13.3013 16.162 13.713C15.7095 14.1244 15.1105 14.4491 14.4552 14.7011C13.1378 15.2078 11.3856 15.5 9.5 15.5C7.61443 15.5 5.8622 15.2078 4.54483 14.7011C3.88947 14.4491 3.29051 14.1244 2.83803 13.713C2.38527 13.3013 2 12.7239 2 12C2 11.1413 2.53578 10.4951 3.10624 10.0655C3.69047 9.62559 4.46583 9.28664 5.32176 9.03931ZM4.00104 12.0009C4.00796 12.0253 4.04105 12.1037 4.18357 12.2333C4.38893 12.42 4.74187 12.6341 5.26278 12.8344C6.29795 13.2326 7.79572 13.5 9.5 13.5C11.2043 13.5 12.7021 13.2326 13.7372 12.8344C14.2581 12.6341 14.6111 12.42 14.8164 12.2333C14.959 12.1037 14.992 12.0253 14.999 12.0009C14.9911 11.9724 14.9441 11.854 14.6907 11.6632C14.41 11.4519 13.9736 11.2325 13.3851 11.0411C12.2541 11.3349 10.9179 11.5 9.5 11.5C8.08205 11.5 6.74589 11.3349 5.6149 11.0411C5.02636 11.2325 4.58998 11.4519 4.30931 11.6632C4.05594 11.854 4.00893 11.9724 4.00104 12.0009ZM15.0006 11.9926C15.0007 11.9926 15.0006 11.9938 15.0001 11.9964C15.0002 11.9938 15.0005 11.9926 15.0006 11.9926ZM3.9999 11.9964C3.99937 11.9938 3.99929 11.9926 3.99939 11.9926C3.99949 11.9926 3.99976 11.9938 3.9999 11.9964Z" fill="#8C30F5"/>
<path fill-rule="evenodd" clip-rule="evenodd" d="M3.99939 7.50742C3.99929 7.50742 3.99937 7.50615 3.9999 7.50363C3.99976 7.50616 3.99949 7.50742 3.99939 7.50742ZM4.00079 7.5C4.00716 7.47659 4.03928 7.39795 4.18357 7.26674C4.38893 7.08 4.74187 6.86593 5.26278 6.66558C6.29795 6.26744 7.79572 6 9.5 6C11.2043 6 12.7021 6.26744 13.7372 6.66558C14.2581 6.86593 14.6111 7.08 14.8164 7.26674C14.9607 7.39795 14.9928 7.47659 14.9992 7.5C14.9928 7.52341 14.9607 7.60205 14.8164 7.73326C14.6111 7.92 14.2581 8.13407 13.7372 8.33442C12.7021 8.73256 11.2043 9 9.5 9C7.79572 9 6.29795 8.73256 5.26278 8.33442C4.74187 8.13407 4.38893 7.92 4.18357 7.73326C4.03928 7.60205 4.00716 7.52341 4.00079 7.5ZM15.0006 7.50742C15.0005 7.50742 15.0002 7.50616 15.0001 7.50363C15.0006 7.50615 15.0007 7.50742 15.0006 7.50742ZM15.0001 7.49637C15.0002 7.49384 15.0005 7.49258 15.0006 7.49258C15.0007 7.49258 15.0006 7.49385 15.0001 7.49637ZM3.9999 7.49637C3.99937 7.49385 3.99929 7.49258 3.99939 7.49258C3.99949 7.49258 3.99976 7.49384 3.9999 7.49637ZM4.54483 4.79889C5.8622 4.2922 7.61443 4 9.5 4C11.3856 4 13.1378 4.2922 14.4552 4.79889C15.1105 5.05095 15.7095 5.37558 16.162 5.78704C16.6147 6.19875 17 6.77615 17 7.5C17 8.22385 16.6147 8.80125 16.162 9.21296C15.7095 9.62442 15.1105 9.94905 14.4552 10.2011C13.1378 10.7078 11.3856 11 9.5 11C7.61443 11 5.8622 10.7078 4.54483 10.2011C3.88947 9.94905 3.29051 9.62442 2.83803 9.21296C2.38527 8.80125 2 8.22385 2 7.5C2 6.77615 2.38527 6.19875 2.83803 5.78704C3.29051 5.37558 3.88947 5.05095 4.54483 4.79889Z" fill="white"/>
<path fill-rule="evenodd" clip-rule="evenodd" d="M24.3415 4.24742C24.7185 3.91753 25.2815 3.91753 25.6585 4.24742L29.6585 7.74742C30.0741 8.11111 30.1163 8.74287 29.7526 9.1585C29.3889 9.57414 28.7571 9.61626 28.3415 9.25258L26 7.20377V27C26 27.5523 25.5523 28 25 28C24.4477 28 24 27.5523 24 27V7.20377L21.6585 9.25258C21.2429 9.61626 20.6111 9.57414 20.2474 9.1585C19.8837 8.74287 19.9259 8.11111 20.3415 7.74742L24.3415 4.24742Z" fill="white"/>
</svg>
