<svg width="132" height="132" viewBox="0 0 132 132" fill="none" xmlns="http://www.w3.org/2000/svg">
<g filter="url(#filter0_d_206_234)">
<rect x="16" y="9" width="100" height="100" rx="16" fill="#2B2B2B"/>
<g clip-path="url(#clip0_206_234)">
<path d="M48.5 47.3333C50.8206 47.3333 53.0462 46.4114 54.6872 44.7704C56.3281 43.1295 57.25 40.9039 57.25 38.5833C57.25 36.2626 56.3281 34.037 54.6872 32.3961C53.0462 30.7551 50.8206 29.8333 48.5 29.8333C46.1794 29.8333 43.9538 30.7551 42.3128 32.3961C40.6719 34.037 39.75 36.2626 39.75 38.5833C39.75 40.9039 40.6719 43.1295 42.3128 44.7704C43.9538 46.4114 46.1794 47.3333 48.5 47.3333ZM48.5 47.3333V70.6666M48.5 70.6666C46.1794 70.6666 43.9538 71.5885 42.3128 73.2294C40.6719 74.8703 39.75 77.0959 39.75 79.4166C39.75 81.7372 40.6719 83.9628 42.3128 85.6038C43.9538 87.2447 46.1794 88.1666 48.5 88.1666C50.8206 88.1666 53.0462 87.2447 54.6872 85.6038C56.3281 83.9628 57.25 81.7372 57.25 79.4166C57.25 77.0959 56.3281 74.8703 54.6872 73.2294C53.0462 71.5885 50.8206 70.6666 48.5 70.6666ZM92.25 38.5833C92.25 40.9039 91.3281 43.1295 89.6872 44.7704C88.0462 46.4114 85.8206 47.3333 83.5 47.3333C81.1794 47.3333 78.9538 46.4114 77.3128 44.7704C75.6719 43.1295 74.75 40.9039 74.75 38.5833C74.75 36.2626 75.6719 34.037 77.3128 32.3961C78.9538 30.7551 81.1794 29.8333 83.5 29.8333C85.8206 29.8333 88.0462 30.7551 89.6872 32.3961C91.3281 34.037 92.25 36.2626 92.25 38.5833Z" stroke="#8C30F5" stroke-width="1.5" stroke-linecap="round" stroke-linejoin="round"/>
<path d="M48.5 58.9999H71.8333C75.9167 58.9999 77.9583 58.9999 79.5188 58.2037C80.8899 57.5047 82.0048 56.3899 82.7037 55.0187C83.5 53.4583 83.5 51.4166 83.5 47.3333" stroke="#8C30F5" stroke-width="1.5" stroke-linecap="round" stroke-linejoin="round"/>
</g>
</g>
<defs>
<filter id="filter0_d_206_234" x="0" y="0" width="132" height="132" filterUnits="userSpaceOnUse" color-interpolation-filters="sRGB">
<feFlood flood-opacity="0" result="BackgroundImageFix"/>
<feColorMatrix in="SourceAlpha" type="matrix" values="0 0 0 0 0 0 0 0 0 0 0 0 0 0 0 0 0 0 127 0" result="hardAlpha"/>
<feOffset dy="7"/>
<feGaussianBlur stdDeviation="8"/>
<feComposite in2="hardAlpha" operator="out"/>
<feColorMatrix type="matrix" values="0 0 0 0 0 0 0 0 0 0 0 0 0 0 0 0 0 0 0.25 0"/>
<feBlend mode="normal" in2="BackgroundImageFix" result="effect1_dropShadow_206_234"/>
<feBlend mode="normal" in="SourceGraphic" in2="effect1_dropShadow_206_234" result="shape"/>
</filter>
<clipPath id="clip0_206_234">
<rect width="70" height="70" fill="white" transform="translate(31 24)"/>
</clipPath>
</defs>
</svg>
